<?xml version="1.0" standalone="no"?>
<!DOCTYPE svg PUBLIC "-//W3C//DTD SVG 20010904//EN"
 "http://www.w3.org/TR/2001/REC-SVG-20010904/DTD/svg10.dtd">
<svg version="1.0" xmlns="http://www.w3.org/2000/svg"
 width="640.000000pt" height="640.000000pt" viewBox="0 0 640.000000 640.000000"
 preserveAspectRatio="xMidYMid meet">

<g transform="translate(0.000000,640.000000) scale(0.100000,-0.100000)"
fill="#000000" stroke="none">
<path d="M0 3200 l0 -3200 3200 0 3200 0 0 3200 0 3200 -3200 0 -3200 0 0
-3200z m4300 -2185 c35 -18 50 -44 49 -82 l-1 -28 -8 29 c-18 58 -70 92 -98
64 -7 -7 -12 -9 -12 -6 0 8 29 38 36 38 3 0 18 -7 34 -15z m8 -72 c20 -40 20
-44 4 -30 -10 9 -21 15 -24 12 -3 -4 -8 10 -10 29 -2 20 -2 36 2 36 3 0 15
-21 28 -47z m-2319 15 c0 -13 -4 -41 -8 -63 -8 -38 -9 -37 -10 23 -1 35 3 62
9 62 6 0 10 -10 9 -22z m51 -45 c0 -81 -5 -79 -14 5 -5 41 -3 62 4 62 6 0 10
-27 10 -67z m351 4 c9 -31 13 -57 9 -57 -4 0 -10 7 -14 15 -7 20 -33 19 -45
-2 -18 -33 -20 -8 -4 50 9 32 21 56 27 54 6 -2 18 -29 27 -60z m499 49 c0 -8
10 -16 23 -18 17 -2 23 -11 25 -36 4 -40 -10 -59 -43 -59 -24 0 -25 2 -25 63
0 36 4 64 10 64 6 0 10 -6 10 -14z m390 4 c0 -5 -2 -10 -4 -10 -3 0 -8 5 -11
10 -3 6 -1 10 4 10 6 0 11 -4 11 -10z m150 -4 c0 -8 10 -16 23 -18 19 -3 22
-10 25 -51 2 -33 0 -47 -7 -42 -6 3 -11 22 -11 41 0 24 -5 34 -15 34 -11 0
-15 -11 -15 -41 0 -24 -4 -38 -10 -34 -5 3 -10 33 -10 66 0 33 4 59 10 59 6 0
10 -6 10 -14z m-871 -34 c-14 -6 -10 -60 4 -65 6 -2 9 -8 5 -12 -14 -15 -38 5
-38 33 0 15 -5 33 -12 40 -9 9 -9 12 0 12 7 0 12 8 12 17 0 15 2 14 19 -3 10
-10 14 -20 10 -22z m801 23 c0 -8 8 -15 18 -15 16 -1 16 -1 0 -14 -23 -17 -24
-56 -1 -56 13 0 14 -3 5 -12 -15 -15 -42 7 -42 36 0 12 -5 27 -12 34 -9 9 -9
12 0 12 7 0 12 7 12 15 0 8 5 15 10 15 6 0 10 -7 10 -15z m870 -4 c0 -5 -7
-12 -16 -15 -14 -5 -15 -4 -4 9 14 17 20 19 20 6z m-2109 -48 c5 -38 3 -42
-20 -46 -14 -3 -29 -3 -33 0 -11 6 -10 43 0 43 5 0 17 7 28 16 18 15 18 15
-10 9 -26 -6 -28 -4 -16 10 23 27 44 14 51 -32z m49 17 c0 -32 18 -32 25 0 4
16 11 30 17 30 6 0 8 -6 6 -12 -3 -7 -13 -37 -22 -65 -11 -34 -23 -53 -33 -53
-13 0 -13 3 -3 15 12 14 10 35 -6 94 -5 17 -4 22 4 17 7 -4 12 -16 12 -26z
m307 13 c3 -7 -4 -10 -19 -6 -21 5 -20 3 7 -20 25 -21 28 -27 16 -41 -17 -20
-35 -20 -52 0 -11 13 -9 14 14 9 17 -5 27 -3 27 4 0 6 -4 11 -9 11 -5 0 -17 7
-26 16 -12 13 -13 19 -4 30 14 17 40 15 46 -3z m181 5 c7 -7 12 -28 12 -48 0
-32 -3 -36 -25 -35 -34 0 -52 20 -35 40 7 8 19 15 26 15 8 0 14 5 14 11 0 6
-9 9 -20 6 -20 -5 -26 3 -13 16 10 11 28 8 41 -5z m99 -4 c2 -6 -7 -10 -19
-10 -19 1 -24 -5 -29 -39 -6 -39 -6 -38 -8 13 -1 52 0 53 26 50 14 -2 28 -8
30 -14z m261 4 c22 -22 14 -48 -13 -48 -14 0 -25 -5 -25 -11 0 -7 10 -9 27 -4
23 5 25 4 14 -9 -18 -22 -38 -20 -51 3 -19 37 -6 81 25 81 6 0 16 -5 23 -12z
m143 -28 c5 0 9 9 9 20 0 31 20 24 21 -7 l1 -28 14 30 15 30 -6 -45 c-6 -48
-25 -80 -25 -43 0 12 -4 25 -10 28 -6 4 -10 -6 -10 -21 0 -41 -18 -17 -23 31
-3 22 -2 32 0 23 2 -10 9 -18 14 -18z m454 8 l7 -33 15 35 c23 52 26 23 5 -40
-13 -38 -25 -56 -38 -58 -18 -3 -18 -2 -1 11 13 11 15 20 9 38 -17 45 -22 79
-13 79 4 0 12 -15 16 -32z m124 18 c17 -20 10 -67 -11 -79 -23 -15 -48 8 -48
42 0 45 35 66 59 37z m67 -66 c10 0 14 12 14 40 0 22 5 40 10 40 6 0 10 -22
10 -49 0 -45 -2 -48 -25 -48 -33 0 -49 28 -38 70 l8 32 3 -42 c2 -29 8 -43 18
-43z m-526 35 c0 -19 5 -35 10 -35 6 0 10 -4 10 -10 0 -5 -13 -10 -30 -10 -16
0 -30 5 -30 10 0 6 5 10 10 10 14 0 13 43 -2 58 -9 9 -7 12 10 12 18 0 22 -6
22 -35z m-1269 -26 c-8 -20 -10 -22 -16 -7 -4 9 -1 23 7 32 17 18 21 6 9 -25z
m1893 -20 c-3 -5 -10 -7 -15 -3 -5 3 -7 10 -3 15 3 5 10 7 15 3 5 -3 7 -10 3
-15z m96 6 c0 -8 -4 -15 -10 -15 -5 0 -10 7 -10 15 0 8 5 15 10 15 6 0 10 -7
10 -15z m84 -6 c-3 -5 -10 -7 -15 -3 -5 3 -7 10 -3 15 3 5 10 7 15 3 5 -3 7
-10 3 -15z"/>
<path d="M2354 927 c-8 -21 2 -35 16 -21 5 5 6 15 0 24 -8 12 -10 12 -16 -3z"/>
<path d="M2890 900 c0 -35 25 -42 35 -10 8 24 -1 40 -21 40 -9 0 -14 -11 -14
-30z"/>
<path d="M2080 884 c0 -17 22 -14 28 4 2 7 -3 12 -12 12 -9 0 -16 -7 -16 -16z"/>
<path d="M2627 893 c-12 -11 -8 -23 8 -23 8 0 15 7 15 15 0 16 -12 20 -23 8z"/>
<path d="M2980 920 c0 -5 7 -10 15 -10 8 0 15 5 15 10 0 6 -7 10 -15 10 -8 0
-15 -4 -15 -10z"/>
<path d="M3700 900 c0 -20 5 -30 15 -30 10 0 15 10 15 30 0 20 -5 30 -15 30
-10 0 -15 -10 -15 -30z"/>
</g>
</svg>
